<svg width="10" height="10" viewBox="0 0 10 10" fill="none" xmlns="http://www.w3.org/2000/svg">
<path d="M5.00024 3.12515C3.96699 3.12515 3.12515 3.96699 3.12515 5.00024C3.12515 6.0335 3.96699 6.87533 5.00024 6.87533C6.0335 6.87533 6.87533 6.0335 6.87533 5.00024C6.87533 3.96699 6.0335 3.12515 5.00024 3.12515ZM9.81298 4.69749L7.96328 3.77362L8.61761 1.81259C8.7055 1.54695 8.45354 1.29498 8.18985 1.38483L6.22882 2.03916L5.30299 0.187509C5.17799 -0.062503 4.8225 -0.062503 4.69749 0.187509L3.77362 2.03721L1.81063 1.38288C1.545 1.29498 1.29303 1.54695 1.38288 1.81063L2.03721 3.77167L0.187509 4.69749C-0.062503 4.8225 -0.062503 5.17799 0.187509 5.30299L2.03721 6.22686L1.38288 8.18985C1.29498 8.45549 1.54695 8.70745 1.81063 8.61761L3.77167 7.96328L4.69554 9.81298C4.82055 10.063 5.17603 10.063 5.30104 9.81298L6.22491 7.96328L8.18594 8.61761C8.45158 8.7055 8.70355 8.45354 8.6137 8.18985L7.95937 6.22882L9.80907 5.30495C10.063 5.17799 10.063 4.8225 9.81298 4.69749V4.69749ZM6.76791 6.76791C5.79325 7.74256 4.20724 7.74256 3.23258 6.76791C2.25792 5.79325 2.25792 4.20724 3.23258 3.23258C4.20724 2.25792 5.79325 2.25792 6.76791 3.23258C7.74256 4.20724 7.74256 5.79325 6.76791 6.76791Z" fill="#0C0C0F"/>
</svg>
