<svg width="32" height="32" viewBox="0 0 32 32" fill="none" xmlns="http://www.w3.org/2000/svg">
<circle cx="16" cy="16" r="16" fill="white"/>
<path d="M13.8934 18.0625C12.718 18.1381 11.6513 18.5858 11.0461 20.1806C10.9772 20.3626 10.8117 20.473 10.6186 20.473C10.2931 20.473 9.28681 19.6624 9 19.4667C9.00029 21.8792 10.1115 23.9997 12.7502 23.9997C14.9726 23.9997 16.5001 22.7174 16.5001 20.4786C16.5001 20.3875 16.4811 20.3005 16.4717 20.2111L13.8934 18.0625V18.0625ZM22.4148 9C21.9706 9 21.5543 9.19658 21.2368 9.48192C15.2483 14.8314 14.6252 14.9571 14.6252 16.5318C14.6252 16.9331 14.7204 17.3158 14.8809 17.6656L16.7506 19.2235C16.9619 19.2763 17.1795 19.3123 17.4066 19.3123C19.2262 19.3123 20.2808 17.9802 23.5928 11.799C23.809 11.3786 24 10.9245 24 10.4516C24 9.60468 23.2383 9 22.4148 9Z" fill="#5DADEC"/>
</svg>
