<svg width="123" height="46" viewBox="0 0 123 46" fill="none" xmlns="http://www.w3.org/2000/svg">
<path d="M8.84 20.14C8.58667 20.14 8.38667 20.0667 8.24 19.92C8.10667 19.7733 8.04 19.5667 8.04 19.3V11.54H6.76C6.54667 11.54 6.37333 11.4867 6.24 11.38C6.12 11.26 6.06 11.1 6.06 10.9C6.06 10.7 6.12 10.5467 6.24 10.44C6.37333 10.3333 6.54667 10.28 6.76 10.28H8.48L8.04 10.7V9.94C8.04 8.67333 8.34667 7.70667 8.96 7.04C9.58667 6.37333 10.5 5.98667 11.7 5.88L12.28 5.82C12.4667 5.80667 12.6133 5.84 12.72 5.92C12.84 6 12.9133 6.1 12.94 6.22C12.98 6.34 12.9867 6.46667 12.96 6.6C12.9333 6.72 12.8733 6.82667 12.78 6.92C12.6867 7.01333 12.5733 7.06667 12.44 7.08L11.98 7.12C11.1667 7.18667 10.5733 7.43333 10.2 7.86C9.84 8.28667 9.66 8.91333 9.66 9.74V10.58L9.42 10.28H11.82C12.0467 10.28 12.22 10.3333 12.34 10.44C12.46 10.5467 12.52 10.7 12.52 10.9C12.52 11.1 12.46 11.26 12.34 11.38C12.22 11.4867 12.0467 11.54 11.82 11.54H9.66V19.3C9.66 19.86 9.38667 20.14 8.84 20.14ZM15.0002 20.14C14.7335 20.14 14.5268 20.0667 14.3802 19.92C14.2468 19.7733 14.1802 19.5667 14.1802 19.3V10.96C14.1802 10.6933 14.2468 10.4933 14.3802 10.36C14.5135 10.2133 14.7068 10.14 14.9602 10.14C15.2135 10.14 15.4068 10.2133 15.5402 10.36C15.6868 10.4933 15.7602 10.6933 15.7602 10.96V12.58H15.5602C15.7735 11.7933 16.1802 11.1867 16.7802 10.76C17.3802 10.3333 18.1202 10.1067 19.0002 10.08C19.2002 10.0667 19.3602 10.1133 19.4802 10.22C19.6002 10.3133 19.6668 10.48 19.6802 10.72C19.6935 10.9467 19.6402 11.1267 19.5202 11.26C19.4002 11.3933 19.2135 11.4733 18.9602 11.5L18.6402 11.54C17.7335 11.62 17.0335 11.9133 16.5402 12.42C16.0602 12.9133 15.8202 13.5933 15.8202 14.46V19.3C15.8202 19.5667 15.7468 19.7733 15.6002 19.92C15.4668 20.0667 15.2668 20.14 15.0002 20.14ZM25.2709 20.18C24.3243 20.18 23.5043 19.9733 22.8109 19.56C22.1176 19.1467 21.5776 18.5667 21.1909 17.82C20.8176 17.06 20.6309 16.1667 20.6309 15.14C20.6309 14.3667 20.7376 13.6733 20.9509 13.06C21.1643 12.4333 21.4776 11.9 21.8909 11.46C22.3043 11.02 22.7909 10.6867 23.3509 10.46C23.9243 10.22 24.5643 10.1 25.2709 10.1C26.2176 10.1 27.0376 10.3067 27.7309 10.72C28.4243 11.1333 28.9576 11.72 29.3309 12.48C29.7176 13.2267 29.9109 14.1133 29.9109 15.14C29.9109 15.9133 29.8043 16.6067 29.5909 17.22C29.3776 17.8333 29.0643 18.3667 28.6509 18.82C28.2376 19.26 27.7443 19.6 27.1709 19.84C26.6109 20.0667 25.9776 20.18 25.2709 20.18ZM25.2709 18.88C25.8709 18.88 26.3976 18.7333 26.8509 18.44C27.3043 18.1467 27.6509 17.72 27.8909 17.16C28.1443 16.6 28.2709 15.9267 28.2709 15.14C28.2709 13.9267 27.9976 13 27.4509 12.36C26.9176 11.72 26.1909 11.4 25.2709 11.4C24.6576 11.4 24.1243 11.5467 23.6709 11.84C23.2309 12.12 22.8843 12.54 22.6309 13.1C22.3909 13.6467 22.2709 14.3267 22.2709 15.14C22.2709 16.34 22.5443 17.2667 23.0909 17.92C23.6376 18.56 24.3643 18.88 25.2709 18.88ZM33.1442 20.14C32.8776 20.14 32.6776 20.0667 32.5442 19.92C32.4109 19.7733 32.3442 19.5667 32.3442 19.3V10.96C32.3442 10.6933 32.4109 10.4933 32.5442 10.36C32.6776 10.2133 32.8709 10.14 33.1242 10.14C33.3776 10.14 33.5709 10.2133 33.7042 10.36C33.8509 10.4933 33.9242 10.6933 33.9242 10.96V12.68L33.7042 12.44C33.9842 11.6667 34.4376 11.0867 35.0642 10.7C35.7042 10.3 36.4376 10.1 37.2642 10.1C38.0376 10.1 38.6776 10.24 39.1842 10.52C39.7042 10.8 40.0909 11.2267 40.3442 11.8C40.5976 12.36 40.7242 13.0733 40.7242 13.94V19.3C40.7242 19.5667 40.6509 19.7733 40.5042 19.92C40.3709 20.0667 40.1776 20.14 39.9242 20.14C39.6576 20.14 39.4509 20.0667 39.3042 19.92C39.1709 19.7733 39.1042 19.5667 39.1042 19.3V14.04C39.1042 13.1333 38.9242 12.4733 38.5642 12.06C38.2176 11.6333 37.6576 11.42 36.8842 11.42C35.9909 11.42 35.2776 11.7 34.7442 12.26C34.2242 12.8067 33.9642 13.54 33.9642 14.46V19.3C33.9642 19.86 33.6909 20.14 33.1442 20.14ZM47.6114 20.18C46.8514 20.18 46.2114 20.0467 45.6914 19.78C45.1847 19.5 44.8047 19.1 44.5514 18.58C44.2981 18.0467 44.1714 17.4 44.1714 16.64V11.54H42.8314C42.6047 11.54 42.4314 11.4867 42.3114 11.38C42.1914 11.26 42.1314 11.1 42.1314 10.9C42.1314 10.7 42.1914 10.5467 42.3114 10.44C42.4314 10.3333 42.6047 10.28 42.8314 10.28H44.1714V7.98C44.1714 7.71333 44.2447 7.51333 44.3914 7.38C44.5381 7.23333 44.7381 7.16 44.9914 7.16C45.2447 7.16 45.4381 7.23333 45.5714 7.38C45.7181 7.51333 45.7914 7.71333 45.7914 7.98V10.28H48.3114C48.5381 10.28 48.7114 10.3333 48.8314 10.44C48.9514 10.5467 49.0114 10.7 49.0114 10.9C49.0114 11.1 48.9514 11.26 48.8314 11.38C48.7114 11.4867 48.5381 11.54 48.3114 11.54H45.7914V16.48C45.7914 17.24 45.9514 17.82 46.2714 18.22C46.5914 18.6067 47.1114 18.8 47.8314 18.8C48.0847 18.8 48.2981 18.7733 48.4714 18.72C48.6581 18.6667 48.8114 18.64 48.9314 18.64C49.0514 18.6267 49.1514 18.6667 49.2314 18.76C49.3114 18.8533 49.3514 19.0133 49.3514 19.24C49.3514 19.4 49.3181 19.5467 49.2514 19.68C49.1981 19.8133 49.0981 19.9067 48.9514 19.96C48.7914 20.0133 48.5781 20.06 48.3114 20.1C48.0581 20.1533 47.8247 20.18 47.6114 20.18ZM50.9883 15.34C50.7883 15.34 50.6216 15.28 50.4883 15.16C50.3549 15.0267 50.2883 14.8667 50.2883 14.68C50.2883 14.48 50.3549 14.32 50.4883 14.2C50.6216 14.0667 50.7883 14 50.9883 14H55.4883C55.6749 14 55.8349 14.0667 55.9683 14.2C56.1016 14.32 56.1683 14.48 56.1683 14.68C56.1683 14.8667 56.1016 15.0267 55.9683 15.16C55.8349 15.28 55.6749 15.34 55.4883 15.34H50.9883ZM63.6578 20.18C62.6311 20.18 61.7445 19.98 60.9978 19.58C60.2645 19.1667 59.6911 18.5867 59.2778 17.84C58.8778 17.0933 58.6778 16.2 58.6778 15.16C58.6778 14.1467 58.8778 13.2667 59.2778 12.52C59.6778 11.76 60.2245 11.1667 60.9178 10.74C61.6245 10.3133 62.4378 10.1 63.3578 10.1C64.0111 10.1 64.5978 10.2133 65.1178 10.44C65.6378 10.6533 66.0778 10.9667 66.4378 11.38C66.8111 11.7933 67.0911 12.2933 67.2778 12.88C67.4778 13.4667 67.5778 14.1267 67.5778 14.86C67.5778 15.0733 67.5178 15.2333 67.3978 15.34C67.2778 15.4333 67.1045 15.48 66.8778 15.48H59.9178V14.42H66.4978L66.1778 14.68C66.1778 13.96 66.0711 13.3533 65.8578 12.86C65.6445 12.3533 65.3311 11.9667 64.9178 11.7C64.5178 11.4333 64.0111 11.3 63.3978 11.3C62.7178 11.3 62.1378 11.46 61.6578 11.78C61.1911 12.0867 60.8378 12.52 60.5978 13.08C60.3578 13.6267 60.2378 14.2667 60.2378 15V15.12C60.2378 16.3467 60.5311 17.28 61.1178 17.92C61.7178 18.56 62.5645 18.88 63.6578 18.88C64.1111 18.88 64.5578 18.82 64.9978 18.7C65.4511 18.58 65.8911 18.38 66.3178 18.1C66.5045 17.98 66.6711 17.9267 66.8178 17.94C66.9778 17.94 67.1045 17.9867 67.1978 18.08C67.2911 18.16 67.3511 18.2667 67.3778 18.4C67.4178 18.52 67.4045 18.6533 67.3378 18.8C67.2845 18.9467 67.1711 19.0733 66.9978 19.18C66.5578 19.5 66.0378 19.7467 65.4378 19.92C64.8378 20.0933 64.2445 20.18 63.6578 20.18ZM70.7223 20.14C70.4557 20.14 70.2557 20.0667 70.1223 19.92C69.989 19.7733 69.9223 19.5667 69.9223 19.3V10.96C69.9223 10.6933 69.989 10.4933 70.1223 10.36C70.2557 10.2133 70.449 10.14 70.7023 10.14C70.9557 10.14 71.149 10.2133 71.2823 10.36C71.429 10.4933 71.5023 10.6933 71.5023 10.96V12.68L71.2823 12.44C71.5623 11.6667 72.0157 11.0867 72.6423 10.7C73.2823 10.3 74.0157 10.1 74.8423 10.1C75.6157 10.1 76.2557 10.24 76.7623 10.52C77.2823 10.8 77.669 11.2267 77.9223 11.8C78.1757 12.36 78.3023 13.0733 78.3023 13.94V19.3C78.3023 19.5667 78.229 19.7733 78.0823 19.92C77.949 20.0667 77.7557 20.14 77.5023 20.14C77.2357 20.14 77.029 20.0667 76.8823 19.92C76.749 19.7733 76.6823 19.5667 76.6823 19.3V14.04C76.6823 13.1333 76.5023 12.4733 76.1423 12.06C75.7957 11.6333 75.2357 11.42 74.4623 11.42C73.569 11.42 72.8557 11.7 72.3223 12.26C71.8023 12.8067 71.5423 13.54 71.5423 14.46V19.3C71.5423 19.86 71.269 20.14 70.7223 20.14ZM84.9895 20.18C84.1229 20.18 83.3629 19.9733 82.7095 19.56C82.0695 19.1467 81.5695 18.5667 81.2095 17.82C80.8629 17.06 80.6895 16.1667 80.6895 15.14C80.6895 14.1 80.8629 13.2067 81.2095 12.46C81.5695 11.7 82.0695 11.12 82.7095 10.72C83.3629 10.3067 84.1229 10.1 84.9895 10.1C85.8695 10.1 86.6229 10.32 87.2495 10.76C87.8762 11.2 88.2962 11.7933 88.5095 12.54H88.2895V6.58C88.2895 6.31333 88.3562 6.11333 88.4895 5.98C88.6362 5.83333 88.8429 5.76 89.1095 5.76C89.3629 5.76 89.5562 5.83333 89.6895 5.98C89.8362 6.11333 89.9095 6.31333 89.9095 6.58V19.3C89.9095 19.5667 89.8429 19.7733 89.7095 19.92C89.5762 20.0667 89.3762 20.14 89.1095 20.14C88.8562 20.14 88.6562 20.0667 88.5095 19.92C88.3762 19.7733 88.3095 19.5667 88.3095 19.3V17.4L88.5295 17.68C88.3162 18.44 87.8895 19.0467 87.2495 19.5C86.6229 19.9533 85.8695 20.18 84.9895 20.18ZM85.3295 18.88C85.9295 18.88 86.4562 18.7333 86.9095 18.44C87.3629 18.1467 87.7095 17.72 87.9495 17.16C88.2029 16.6 88.3295 15.9267 88.3295 15.14C88.3295 13.9267 88.0562 13 87.5095 12.36C86.9762 11.72 86.2495 11.4 85.3295 11.4C84.7162 11.4 84.1829 11.5467 83.7295 11.84C83.2895 12.12 82.9429 12.54 82.6895 13.1C82.4495 13.6467 82.3295 14.3267 82.3295 15.14C82.3295 16.34 82.6029 17.2667 83.1495 17.92C83.6962 18.56 84.4229 18.88 85.3295 18.88Z" fill="#4A4C5B"/>
<path d="M13.4563 40.165C12.2863 40.165 11.2813 39.94 10.4413 39.49C9.60125 39.04 8.95625 38.405 8.50625 37.585C8.06625 36.765 7.84625 35.805 7.84625 34.705C7.84625 33.885 7.97125 33.14 8.22125 32.47C8.48125 31.8 8.85125 31.225 9.33125 30.745C9.82125 30.265 10.4113 29.9 11.1013 29.65C11.8013 29.39 12.5863 29.26 13.4563 29.26C13.9163 29.26 14.3913 29.315 14.8813 29.425C15.3813 29.525 15.8213 29.68 16.2013 29.89C16.4813 30.04 16.6763 30.23 16.7863 30.46C16.8963 30.69 16.9313 30.925 16.8913 31.165C16.8613 31.405 16.7763 31.62 16.6363 31.81C16.4963 32 16.3163 32.13 16.0963 32.2C15.8763 32.26 15.6363 32.225 15.3763 32.095C15.0763 31.955 14.7763 31.85 14.4763 31.78C14.1863 31.7 13.8813 31.66 13.5613 31.66C12.9413 31.66 12.4213 31.78 12.0013 32.02C11.5913 32.25 11.2813 32.59 11.0713 33.04C10.8613 33.49 10.7563 34.045 10.7563 34.705C10.7563 35.365 10.8613 35.925 11.0713 36.385C11.2813 36.835 11.5913 37.18 12.0013 37.42C12.4213 37.65 12.9413 37.765 13.5613 37.765C13.8213 37.765 14.1013 37.735 14.4013 37.675C14.7013 37.605 14.9963 37.5 15.2863 37.36C15.5863 37.23 15.8513 37.195 16.0813 37.255C16.3213 37.315 16.5113 37.435 16.6513 37.615C16.8013 37.795 16.8963 38.005 16.9363 38.245C16.9763 38.475 16.9413 38.705 16.8313 38.935C16.7313 39.165 16.5513 39.35 16.2913 39.49C15.9413 39.7 15.5063 39.865 14.9863 39.985C14.4763 40.105 13.9663 40.165 13.4563 40.165ZM21.3234 40.135C20.8834 40.135 20.5434 40.015 20.3034 39.775C20.0634 39.525 19.9434 39.175 19.9434 38.725V30.7C19.9434 30.24 20.0634 29.89 20.3034 29.65C20.5434 29.41 20.8834 29.29 21.3234 29.29C21.7734 29.29 22.1134 29.41 22.3434 29.65C22.5834 29.89 22.7034 30.24 22.7034 30.7V33.505H27.0684V30.7C27.0684 30.24 27.1834 29.89 27.4134 29.65C27.6534 29.41 27.9984 29.29 28.4484 29.29C28.8884 29.29 29.2234 29.41 29.4534 29.65C29.6934 29.89 29.8134 30.24 29.8134 30.7V38.725C29.8134 39.175 29.6934 39.525 29.4534 39.775C29.2234 40.015 28.8884 40.135 28.4484 40.135C27.9984 40.135 27.6534 40.015 27.4134 39.775C27.1834 39.525 27.0684 39.175 27.0684 38.725V35.77H22.7034V38.725C22.7034 39.175 22.5884 39.525 22.3584 39.775C22.1284 40.015 21.7834 40.135 21.3234 40.135ZM33.7304 40.135C33.4204 40.135 33.1604 40.065 32.9504 39.925C32.7404 39.775 32.6104 39.575 32.5604 39.325C32.5104 39.065 32.5554 38.775 32.6954 38.455L36.4304 30.415C36.6104 30.025 36.8304 29.74 37.0904 29.56C37.3604 29.38 37.6654 29.29 38.0054 29.29C38.3454 29.29 38.6404 29.38 38.8904 29.56C39.1504 29.74 39.3754 30.025 39.5654 30.415L43.3004 38.455C43.4604 38.775 43.5154 39.065 43.4654 39.325C43.4254 39.585 43.3004 39.785 43.0904 39.925C42.8904 40.065 42.6404 40.135 42.3404 40.135C41.9404 40.135 41.6304 40.045 41.4104 39.865C41.2004 39.685 41.0104 39.395 40.8404 38.995L40.0304 37.09L41.0804 37.855H34.9004L35.9654 37.09L35.1554 38.995C34.9754 39.395 34.7904 39.685 34.6004 39.865C34.4104 40.045 34.1204 40.135 33.7304 40.135ZM37.9754 32.305L36.2354 36.46L35.8154 35.74H40.1804L39.7604 36.46L38.0054 32.305H37.9754ZM47.5708 40C47.1308 40 46.7858 39.88 46.5358 39.64C46.2958 39.39 46.1758 39.045 46.1758 38.605V30.805C46.1758 30.355 46.2958 30.01 46.5358 29.77C46.7758 29.53 47.1158 29.41 47.5558 29.41C48.0058 29.41 48.3458 29.53 48.5758 29.77C48.8158 30.01 48.9358 30.355 48.9358 30.805V37.705H52.5958C52.9758 37.705 53.2658 37.805 53.4658 38.005C53.6758 38.195 53.7808 38.475 53.7808 38.845C53.7808 39.215 53.6758 39.5 53.4658 39.7C53.2658 39.9 52.9758 40 52.5958 40H47.5708ZM57.8452 40C57.4052 40 57.0602 39.88 56.8102 39.64C56.5702 39.39 56.4502 39.045 56.4502 38.605V30.805C56.4502 30.355 56.5702 30.01 56.8102 29.77C57.0502 29.53 57.3902 29.41 57.8302 29.41C58.2802 29.41 58.6202 29.53 58.8502 29.77C59.0902 30.01 59.2102 30.355 59.2102 30.805V37.705H62.8702C63.2502 37.705 63.5402 37.805 63.7402 38.005C63.9502 38.195 64.0552 38.475 64.0552 38.845C64.0552 39.215 63.9502 39.5 63.7402 39.7C63.5402 39.9 63.2502 40 62.8702 40H57.8452ZM68.1646 40C67.6946 40 67.3346 39.88 67.0846 39.64C66.8446 39.39 66.7246 39.035 66.7246 38.575V30.85C66.7246 30.39 66.8446 30.04 67.0846 29.8C67.3346 29.55 67.6946 29.425 68.1646 29.425H73.2496C73.6096 29.425 73.8796 29.515 74.0596 29.695C74.2396 29.875 74.3296 30.135 74.3296 30.475C74.3296 30.825 74.2396 31.095 74.0596 31.285C73.8796 31.465 73.6096 31.555 73.2496 31.555H69.3646V33.565H72.9196C73.2696 33.565 73.5346 33.655 73.7146 33.835C73.9046 34.015 73.9996 34.28 73.9996 34.63C73.9996 34.98 73.9046 35.245 73.7146 35.425C73.5346 35.605 73.2696 35.695 72.9196 35.695H69.3646V37.87H73.2496C73.6096 37.87 73.8796 37.965 74.0596 38.155C74.2396 38.335 74.3296 38.595 74.3296 38.935C74.3296 39.285 74.2396 39.55 74.0596 39.73C73.8796 39.91 73.6096 40 73.2496 40H68.1646ZM78.7285 40.135C78.3085 40.135 77.9885 40.025 77.7685 39.805C77.5485 39.585 77.4385 39.26 77.4385 38.83V30.655C77.4385 30.215 77.5485 29.88 77.7685 29.65C77.9885 29.41 78.2785 29.29 78.6385 29.29C78.9585 29.29 79.2085 29.35 79.3885 29.47C79.5685 29.59 79.7685 29.79 79.9885 30.07L84.7435 36.01H84.3235V30.58C84.3235 30.16 84.4285 29.84 84.6385 29.62C84.8585 29.4 85.1785 29.29 85.5985 29.29C86.0185 29.29 86.3335 29.4 86.5435 29.62C86.7635 29.84 86.8735 30.16 86.8735 30.58V38.89C86.8735 39.27 86.7735 39.575 86.5735 39.805C86.3735 40.025 86.1035 40.135 85.7635 40.135C85.4235 40.135 85.1535 40.075 84.9535 39.955C84.7635 39.825 84.5585 39.625 84.3385 39.355L79.5835 33.4H80.0035V38.83C80.0035 39.26 79.8935 39.585 79.6735 39.805C79.4635 40.025 79.1485 40.135 78.7285 40.135ZM95.7057 40.165C94.4957 40.165 93.4657 39.94 92.6157 39.49C91.7757 39.04 91.1357 38.41 90.6957 37.6C90.2557 36.79 90.0357 35.845 90.0357 34.765C90.0357 33.925 90.1657 33.17 90.4257 32.5C90.6957 31.82 91.0807 31.24 91.5807 30.76C92.0807 30.27 92.6907 29.9 93.4107 29.65C94.1407 29.39 94.9657 29.26 95.8857 29.26C96.3857 29.26 96.8957 29.31 97.4157 29.41C97.9357 29.5 98.4457 29.675 98.9457 29.935C99.2057 30.055 99.3807 30.225 99.4707 30.445C99.5707 30.655 99.6007 30.88 99.5607 31.12C99.5307 31.35 99.4457 31.565 99.3057 31.765C99.1757 31.955 98.9957 32.085 98.7657 32.155C98.5357 32.215 98.2757 32.18 97.9857 32.05C97.6857 31.91 97.3607 31.805 97.0107 31.735C96.6607 31.655 96.2907 31.615 95.9007 31.615C95.2307 31.615 94.6707 31.735 94.2207 31.975C93.7807 32.215 93.4507 32.57 93.2307 33.04C93.0107 33.51 92.9007 34.085 92.9007 34.765C92.9007 35.785 93.1507 36.555 93.6507 37.075C94.1507 37.595 94.8907 37.855 95.8707 37.855C96.1707 37.855 96.4957 37.825 96.8457 37.765C97.2057 37.705 97.5657 37.62 97.9257 37.51L97.4157 38.545V35.98H96.3657C96.0257 35.98 95.7607 35.895 95.5707 35.725C95.3907 35.555 95.3007 35.315 95.3007 35.005C95.3007 34.695 95.3907 34.46 95.5707 34.3C95.7607 34.13 96.0257 34.045 96.3657 34.045H98.5857C98.9357 34.045 99.2007 34.14 99.3807 34.33C99.5707 34.51 99.6657 34.775 99.6657 35.125V38.44C99.6657 38.74 99.6007 38.995 99.4707 39.205C99.3507 39.415 99.1557 39.565 98.8857 39.655C98.4157 39.815 97.9057 39.94 97.3557 40.03C96.8057 40.12 96.2557 40.165 95.7057 40.165ZM104.452 40C103.982 40 103.622 39.88 103.372 39.64C103.132 39.39 103.012 39.035 103.012 38.575V30.85C103.012 30.39 103.132 30.04 103.372 29.8C103.622 29.55 103.982 29.425 104.452 29.425H109.537C109.897 29.425 110.167 29.515 110.347 29.695C110.527 29.875 110.617 30.135 110.617 30.475C110.617 30.825 110.527 31.095 110.347 31.285C110.167 31.465 109.897 31.555 109.537 31.555H105.652V33.565H109.207C109.557 33.565 109.822 33.655 110.002 33.835C110.192 34.015 110.287 34.28 110.287 34.63C110.287 34.98 110.192 35.245 110.002 35.425C109.822 35.605 109.557 35.695 109.207 35.695H105.652V37.87H109.537C109.897 37.87 110.167 37.965 110.347 38.155C110.527 38.335 110.617 38.595 110.617 38.935C110.617 39.285 110.527 39.55 110.347 39.73C110.167 39.91 109.897 40 109.537 40H104.452Z" fill="#5DADEC"/>
</svg>
